:SAMPLES-PER-SECOND 30
:FULLY-SPECIFIED
:DEGREES
790
root  1.40939 30.9514 22.6407 -36.1191 0.19826 96.3065
Spine  -2.84208 -2.3835 1.83477
Spine1  -2.71697 7.53739 -3.86605
Neck  3.97569e-016 0 -2.38542e-015
Head  -11.0486 3.09986 22.3568
R_Clavicle  0.360335 -17.922 0.594263
R_UpperArm  22.8184 -2.19781 23.5732
R_Forearm  24.4198 5.96194 -4.99014
R_Hand  -1.03025 6.06845 -18.8818
L_Clavicle  -0.563705 18.4386 -1.7893
L_UpperArm  -4.51484 14.5913 26.5481
L_Forearm  -11.9116 21.9281 27.7004
L_Hand  -0.42807 0.507154 -7.98305
L_Thigh  2.46295 -7.54848 -5.28048
L_Calf  -7.35896 -1.41826 10.1971
L_Foot  13.6181 14.8164 28.1229
L_Toe0  -1.64227 0.0837665 -5.27392
R_Thigh  4.57259 -8.03655 5.89717
R_Calf  5.88001 5.1538 16.2824
R_Foot  0.457923 0.74389 -2.10282
R_Toe0  1.69137 -0.358143 -15.3177
791
root  2.03241 29.9483 22.4345 -33.2595 1.13649 93.3083
Spine  -4.93512 -2.9801 8.45851
Spine1  -4.54909 8.31761 -2.64779
Neck  3.97569e-016 0 -2.38542e-015
Head  -8.68496 4.48099 19.6991
R_Clavicle  0.37071 -19.8917 -0.244697
R_UpperArm  25.6554 -3.41798 33.5516
R_Forearm  30.1817 7.19277 -6.03068
R_Hand  -1.74108 6.92365 -24.9169
L_Clavicle  -0.527544 18.0448 -0.830395
L_UpperArm  -2.65683 7.36985 18.1287
L_Forearm  -12.2219 22.4305 28.4667
L_Hand  -0.373737 0.329469 -7.14303
L_Thigh  3.27169 -9.31149 -4.26415
L_Calf  -6.03846 -0.532482 3.71354
L_Foot  13.6976 11.4497 32.774
L_Toe0  0.541 0.0305862 -6.15654
R_Thigh  1.26685 -10.4908 9.90892
R_Calf  5.99262 3.60091 11.3799
R_Foot  1.33266 4.85759 1.10344
R_Toe0  -1.98956 -0.264374 -17.4401
792
root  2.72127 29.2147 22.2735 -31.4353 3.42997 92.1237
Spine  -5.63146 -1.61866 13.2983
Spine1  -5.28535 7.65102 -0.683141
Neck  3.97569e-016 0 -2.38542e-015
Head  -8.87119 5.70593 15.1124
R_Clavicle  0.388184 -20.8841 -0.605562
R_UpperArm  25.3445 -6.07867 45.6185
R_Forearm  30.3774 13.8644 -11.8463
R_Hand  -1.96832 8.09243 -26.3247
L_Clavicle  -0.394198 14.1769 -0.536113
L_UpperArm  -5.88858 3.74595 9.50867
L_Forearm  -7.7375 20.0637 24.9402
L_Hand  -0.342598 1.09416 -5.77901
L_Thigh  3.78584 -11.6534 -1.12024
L_Calf  -4.96222 0.235847 -1.86737
L_Foot  13.5263 10.0077 34.4921
L_Toe0  0.320657 0.0332515 -6.06137
R_Thigh  -1.43383 -11.0732 15.7674
R_Calf  4.84047 1.56182 4.98428
R_Foot  1.59164 6.06222 2.67793
R_Toe0  -1.56044 -0.27002 -17.1936
793
root  3.46062 28.8801 22.0072 -30.5135 6.12411 93.0386
Spine  -5.90007 0.213172 16.9987
Spine1  -5.90052 7.51371 -0.127265
Neck  3.97569e-016 0 -2.38542e-015
Head  -7.49508 6.05051 11.9592
R_Clavicle  0.348177 -19.2912 -0.593984
R_UpperArm  20.7119 -12.2682 56.8616
R_Forearm  20.1989 24.7199 -22.4998
R_Hand  -1.64774 8.38981 -23.8622
L_Clavicle  -0.237788 8.82278 -0.123597
L_UpperArm  -13.5681 4.35814 4.26407
L_Forearm  -4.89987 14.5323 17.4108
L_Hand  -0.387438 1.96 -5.77605
L_Thigh  3.88012 -13.1757 3.41344
L_Calf  -4.653 0.719897 -5.36557
L_Foot  12.5716 8.98498 33.4066
L_Toe0  -0.844613 0.0584402 -5.16631
R_Thigh  -1.66341 -8.84488 22.0089
R_Calf  4.54515 -0.438525 -1.31611
R_Foot  0.381108 2.80217 4.89051
R_Toe0  -1.06681 -0.264926 -16.9419
794
root  4.1876 28.9037 21.6131 -29.1524 9.3614 95.06
Spine  -7.3322 2.12424 20.3722
Spine1  -7.9623 7.33196 -1.448
Neck  3.97569e-016 0 -2.38542e-015
Head  -2.57519 6.6569 11.6936
R_Clavicle  0.260195 -16.9013 -1.15776
R_UpperArm  12.4261 -18.6996 64.522
R_Forearm  5.48815 34.058 -34.1726
R_Hand  -1.40278 7.497 -22.0441
L_Clavicle  -0.260567 5.22843 1.23034
L_UpperArm  -18.7884 5.32144 3.91582
L_Forearm  -7.14295 7.14183 8.31014
L_Hand  -0.511358 1.87143 -7.67748
L_Thigh  4.98615 -14.7151 8.58291
L_Calf  -3.41171 0.951315 -7.01636
L_Foot  10.044 7.07121 28.9112
L_Toe0  -1.6131 0.105415 -3.02463
R_Thigh  0.196942 -6.96296 27.7221
R_Calf  1.39472 -2.40398 -7.45327
R_Foot  0.987372 4.49451 4.33378
R_Toe0  -0.966852 -0.270115 -16.8746
